<?xml version="1.0" encoding="UTF-8"?>
<svg width="225.78mm" height="56.237mm" version="1.1" viewBox="0 0 799.99998 199.26603" xmlns="http://www.w3.org/2000/svg">
 <g transform="translate(167.7 9.8482)">
  <g transform="matrix(5.9169 0 0 5.9169 2033.9 -452.86)">
   <path d="m-363.87 75.496 0.15486-0.05163 0.16519-0.05163h0.52653l0.191 0.05163 0.191 0.05163 0.20132 0.05163 0.20133 0.05163 0.20648 0.10325 0.43362 0.2065 0.44394 0.25813 0.45427 0.36138 0.46459 0.36138 0.47491 0.36138 0.48008 0.46463 0.48524 0.46463 0.48524 0.51626 0.48008 0.56788 0.48007 0.56788 0.47492 0.56788 0.46459 0.61951 0.45427 0.61951 0.44394 0.67114 0.42329 0.67114 0.41297 0.67114 0.38716 0.67114 0.36651 0.67114 0.34586 0.72276 0.31489 0.67114 0.28392 0.67114 0.25811 0.67114 0.22197 0.67114 0.18583 0.67114 0.14454 0.61951 0.10841 0.61951 0.0619 0.61951c0.58849 8.3118-2.5191 16.778-6.6746 17.088-6.6746 0.41301-9.7977-10.893-11.873-15.023-2.0803-4.1817-1.4918-14.404 6.6746-17.501z" fill="#714600" fill-rule="evenodd" stroke-miterlimit="10.433" stroke-width="0"/>
   <path d="m-363.87 75.496 0.15486-0.05163 0.16519-0.05163h0.52653l0.191 0.05163 0.191 0.05163 0.20132 0.05163 0.20133 0.05163 0.20648 0.10325 0.43362 0.2065 0.44394 0.25813 0.45427 0.36138 0.46459 0.36138 0.47491 0.36138 0.48008 0.46463 0.48524 0.46463 0.48524 0.51626 0.48008 0.56788 0.48007 0.56788 0.47492 0.56788 0.46459 0.61951 0.45427 0.61951 0.44394 0.67114 0.42329 0.67114 0.41297 0.67114 0.38716 0.67114 0.36651 0.67114 0.34586 0.72276 0.31489 0.67114 0.28392 0.67114 0.25811 0.67114 0.22197 0.67114 0.18583 0.67114 0.14454 0.61951 0.10841 0.61951 0.0619 0.61951c0.58849 8.3118-2.5191 16.778-6.6746 17.088-6.6746 0.41301-9.7977-10.893-11.873-15.023-2.0803-4.1817-1.4918-14.404 6.6746-17.501z" fill="none" stroke="#000" stroke-miterlimit="10.433" stroke-width="1.039"/>
   <path d="m-362.24 75.496h108.21s18.532 3.0976 16.467 14.972c-2.0648 11.874-8.724 13.991-8.724 13.991s-82.558-4.1817-110.3 2.9427c0 0 6.37-8.6215 4.5943-16.469-3.1231-13.991-10.242-15.436-10.242-15.436z" fill="#714600" fill-rule="evenodd" stroke-miterlimit="10.433" stroke-width="0"/>
   <path d="m-362.24 75.496h108.21s18.532 3.0976 16.467 14.972c-2.0648 11.874-8.724 13.991-8.724 13.991s-82.558-4.1817-110.3 2.9427c0 0 6.37-8.6215 4.5943-16.469-3.1231-13.991-10.242-15.436-10.242-15.436z" fill="none" stroke="#000" stroke-miterlimit="9.83" stroke-width="1.039"/>
   <path d="m-362.82 89.59-0.12389 0.05163-0.1239 0.10325-0.11356 0.10325-0.11357 0.10325-0.1084 0.10325-0.10325 0.15488-0.0929 0.10325-0.0929 0.15488-0.0878 0.15488-0.0774 0.15488-0.0723 0.15488-0.0671 0.15488-0.0568 0.2065-0.0516 0.15488-0.0413 0.2065-0.0361 0.15488-0.0258 0.2065-0.0206 0.15488-0.0103 0.2065v0.2065l0.0103 0.15488 0.0206 0.2065 0.0258 0.2065 0.0413 0.15488 0.0465 0.2065 0.0619 0.15488 0.0723 0.15488 0.0826 0.2065 0.0929 0.15488 0.1084 0.15488 0.11873 0.15488 0.13422 0.15488c0.88272 0.72276 2.9631-0.92927 2.8185-2.3748-0.29941-1.652-0.88273-3.6138-2.2146-2.6845z" fill="#714600" fill-rule="evenodd" stroke-miterlimit="10.433" stroke-width="0"/>
   <path d="m-362.82 89.59-0.12389 0.05163-0.1239 0.10325-0.11356 0.10325-0.11357 0.10325-0.1084 0.10325-0.10325 0.15488-0.0929 0.10325-0.0929 0.15488-0.0878 0.15488-0.0774 0.15488-0.0723 0.15488-0.0671 0.15488-0.0568 0.2065-0.0516 0.15488-0.0413 0.2065-0.0361 0.15488-0.0258 0.2065-0.0206 0.15488-0.0103 0.2065v0.2065l0.0103 0.15488 0.0206 0.2065 0.0258 0.2065 0.0413 0.15488 0.0465 0.2065 0.0619 0.15488 0.0723 0.15488 0.0826 0.2065 0.0929 0.15488 0.1084 0.15488 0.11873 0.15488 0.13422 0.15488c0.88272 0.72276 2.9631-0.92927 2.8185-2.3748-0.29941-1.652-0.88273-3.6138-2.2146-2.6845z" fill="none" stroke="#000" stroke-miterlimit="10.433" stroke-width=".44528"/>
   <path d="m-365.64 86.595-0.13422 0.56788-0.11357 0.56788-0.10324 0.56788-0.0774 0.51626-0.0568 0.56788-0.0361 0.56788-0.0103 0.25813-5e-3 0.25813 5e-3 0.30976 0.0103 0.25813 0.0207 0.25813 0.0206 0.25813 0.0361 0.30976 0.0361 0.25813 0.0516 0.25813 0.0568 0.25813 0.062 0.25813 0.0723 0.25813 0.0826 0.30976 0.0878 0.25813 0.0981 0.25813 0.1084 0.25813 0.11873 0.25813 0.12905 0.25813 0.13938 0.2065 0.14454 0.25813c1.1718 2.1167 3.8509 3.3041 5.0434 1.3423 1.9358-3.0976 1.3318-7.589-1.0479-10.119-1.0273-1.1874-3.8509-0.30976-4.1555 2.2199" fill="none" stroke="#000" stroke-miterlimit="10.433" stroke-width=".44528"/>
   <path d="m-366.69 84.53-0.32522 0.56788-0.28391 0.56788-0.24262 0.56788-0.19617 0.56788-0.16002 0.61951-0.11873 0.56788-0.0826 0.61951-0.0465 0.61951-5e-3 0.56788 0.0258 0.61951 0.0568 0.61951 0.0929 0.56788 0.12389 0.56788 0.15486 0.61951 0.18584 0.56788 0.21165 0.56788 0.23745 0.56788 0.26843 0.51626 0.28908 0.56788 0.32005 0.51626 0.33554 0.51626 0.36135 0.46463 0.382 0.51626 0.40264 0.41301 0.41813 0.46463 0.43878 0.41301 0.45427 0.41301 0.46975 0.36138 0.48524 0.36138 0.50073 0.30976 0.51105 0.30976 0.52137 0.25813c1.9358 0.87764 3.567-1.1874 3.8716-2.9943 0.58332-4.7496-0.7485-9.241-2.6843-13.216-1.6312-3.5622-5.7867-0.87764-7.418 1.9102" fill="none" stroke="#000" stroke-miterlimit="10.433" stroke-width=".44528"/>
   <path d="m-365.06 81.381-0.16519 0.15488-0.16003 0.10325-0.16002 0.05163-0.16003 0.10325-0.16003 0.10325-0.15486 0.05163-0.16002 0.10325-0.15487 0.05163-0.16519 0.05163-0.16002 0.10325-0.16519 0.05163-0.17035 0.05163-0.17551 0.05163-0.17551 0.05163-0.18584 0.05163-0.191 0.05163c-1.3267 0.30976-1.4918 2.1167-1.7912 2.9943-2.0803 7.8988 1.7912 15.436 8.3265 19.05 4.1555 2.3748 5.3428-3.7171 6.0706-7.2793 1.0479-5.524 0-11.306-3.5515-15.643-1.7912-2.2199-5.3428-2.2199-7.8619-0.56788-0.30456 0.15488-0.90853 1.0325-0.60397 1.7553" fill="none" stroke="#000" stroke-miterlimit="10.433" stroke-width=".44528"/>
   <path d="m-353.77 79.316c25.367 0.77439 50.749 0.46463 76.301 0.61951" fill="none" stroke="#000" stroke-miterlimit="10.433" stroke-width=".44528"/>
   <path d="m-273.33 80.968h2.9424" fill="none" stroke="#000" stroke-miterlimit="10.433" stroke-width=".44528"/>
   <path d="m-267.24 80.968c6.2462-0.77439 12.441 1.0325 18.532 0" fill="none" stroke="#000" stroke-miterlimit="10.433" stroke-width=".44528"/>
   <path d="m-319.79 77.251c9.4931 0.41301 18.991 0.72276 28.335 1.652" fill="none" stroke="#000" stroke-miterlimit="10.433" stroke-width=".44528"/>
   <path d="m-352.29 83.962 3.1076-0.46463 1.5486-0.15488 1.5486-0.15488 1.5435-0.15488 1.5435-0.10325 1.5435-0.10325 1.5383-0.05163h3.0715l1.5332 0.05163 1.5332 0.15488 1.5332 0.15488 1.5332 0.2065 1.5332 0.25813 1.528 0.36138c1.7758 0.25813 3.5722 0.41301 5.3428 0.87764 2.3797 0.56788 4.4601-0.15488 6.0913-1.9618 0.13938 1.3423 2.0752 0.92927 2.0752 2.065 1.4764 0 2.6636-0.56788 3.8509-0.98089 3.7167-1.3939 8.311 0.25813 12.647 0 2.4778-0.15488 3.82-1.0841 5.1621-1.0841h4.1813" fill="none" stroke="#000" stroke-miterlimit="10.433" stroke-width=".44528"/>
   <path d="m-282.68 87.06 0.0516-0.05163h0.10324l0.10324-0.05163h0.15486l0.15487-0.05163 0.10324-0.05163 0.15486-0.05163 0.15487-0.05163 0.10324-0.05163 0.15486-0.05163 0.10325-0.05163 0.15486-0.10325 0.10324-0.05163h0.10324l0.15487-0.05163 0.0516-0.05163h0.1032l0.0516-0.05163c2.0648-0.56788 4.1813-0.56788 6.2462-1.0325 1.8067-0.30976 3.8716 0.46463 5.6267 0.61951 0.46459 0 0.61946-1.652 1.497-1.8069 3.5619-0.56788 6.814-0.87764 10.376-0.56788" fill="none" stroke="#000" stroke-miterlimit="10.433" stroke-width=".44528"/>
   <path d="m-254.8 84.53c4.6459-2.065 9.4983-0.15488 14.402-0.56788" fill="none" stroke="#000" stroke-miterlimit="10.433" stroke-width=".44528"/>
   <path d="m-238.9 87.679-0.30973-0.05163h-0.36134l-0.67108-0.10325-0.61946-0.10325-0.67107-0.10325-0.67108-0.15488-0.61945-0.15488-1.2905-0.30976-0.67108-0.15488-0.61945-0.10325-0.61946-0.15488-0.61945-0.10325-0.61946-0.10325h-0.30972l-0.30973-0.05163h-1.2389c-6.5559 0.25813-12.957-0.30976-19.616 0.87764-5.7816 1.0325-11.718 2.5297-16.777 1.0325-5.9364-1.8069-11.563-1.1874-17.19-0.15488-0.30973 0.15488-0.15487 1.3423-0.61946 1.8069-0.30973 0.25813-1.1873 0.25813-1.4454 0-0.92918-0.92927-1.9616-1.8069-2.8392-2.1167-3.567-1.9102-8.0271-0.87764-12.177-1.1874-10.247-0.87764-20.189 1.652-30.431 0.77439" fill="none" stroke="#000" stroke-miterlimit="10.433" stroke-width=".44528"/>
   <path d="m-332.69 77.819c3.1024 0 6.2307-1.3423 9.3538 0" fill="none" stroke="#000" stroke-miterlimit="10.433" stroke-width=".44528"/>
   <path d="m-263.06 78.903c4.4394-2.1167 9.3434 0.10325 13.938-0.61951" fill="none" stroke="#000" stroke-miterlimit="10.433" stroke-width=".44528"/>
   <path d="m-351.69 90.157 2.1165-0.2065 2.1268-0.15488 2.132-0.2065 2.1268-0.10325 1.0634-0.05163h1.0634l1.0582-0.05163h1.0582l1.0479 0.05163h1.0479l1.0428 0.10325 1.0324 0.05163c1.7758 0.15488 3.9955 0.56788 5.7867 1.1874 6.3752 2.2199 12.905-1.9618 19.58-1.0325" fill="none" stroke="#000" stroke-miterlimit="10.433" stroke-width=".44528"/>
   <path d="m-299.15 90.157c3.0973 0.30976 6.0913-0.87764 9.1886-0.41301" fill="none" stroke="#000" stroke-miterlimit="10.433" stroke-width=".44528"/>
   <path d="m-283.71 90.157c8.0013 0 15.744-1.6004 23.746-1.0325" fill="none" stroke="#000" stroke-miterlimit="10.433" stroke-width=".44528"/>
   <path d="m-265.18 91.655h0.61946l0.56783 0.05163h0.56784l0.56783 0.05163 1.1873 0.05163 0.56783 0.05163h2.8908l0.56783-0.05163 0.56783-0.10325h0.25811l0.30973-0.05163 0.2581-0.10325 0.25811-0.05163c1.084-0.25813 2.3746-1.3423 3.3038-1.4972 4.7492-0.72276 9.6532-1.3423 14.402 0.15488" fill="none" stroke="#000" stroke-miterlimit="10.433" stroke-width=".44528"/>
   <path d="m-238.9 92.687c-4.1297 0.77439-8.1562-2.065-12.286-0.41301" fill="none" stroke="#000" stroke-miterlimit="10.433" stroke-width=".44528"/>
   <path d="m-269.77 91.655-1.497 0.30976-1.5486 0.25813-1.5486 0.25813-1.5486 0.15488-1.5486 0.15488-1.5486 0.10325-1.5486 0.10325-1.5486 0.05163-1.5486 0.05163h-4.6459l-3.1489-0.05163-3.0973-0.05163c-5.0589-0.15488-10.376 0.30976-15.44-1.3423" fill="none" stroke="#000" stroke-miterlimit="10.433" stroke-width=".44528"/>
   <path d="m-350.22 92.687c6.0913 0.46463 12.017-1.652 18.109-1.0325" fill="none" stroke="#000" stroke-miterlimit="10.433" stroke-width=".44528"/>
   <path d="m-327.51 93.72h0.36135l0.36135 0.05163h0.36135l0.36135 0.05163 0.72269 0.05163h1.0686l0.35103 0.05163 0.35102-0.05163h0.52138l0.17035-0.05163h0.17035l0.17035-0.05163 0.17035-0.05163h0.16518l0.17035-0.05163 0.16519-0.05163c3.2676-1.3423 6.6746-0.30976 9.8029-1.9618" fill="none" stroke="#000" stroke-miterlimit="10.433" stroke-width=".44528"/>
   <path d="m-350.22 96.404c6.9792-0.25813 14.258-2.7878 21.232 0.46463" fill="none" stroke="#000" stroke-miterlimit="10.433" stroke-width=".44528"/>
   <path d="m-349.62 98.934h0.55235l0.54202-0.05163 0.5317-0.05163 0.52654-0.05163 0.52137-0.10325 0.51621-0.10325 0.51105-0.10325 0.50589-0.15488 0.50589-0.10325 0.51105-0.15488 1.0118-0.30976 1.0273-0.30976 0.52137-0.15488 0.52654-0.15488c5.1982-1.2906 10.825 2.8394 15.729 0.77439 0.60397-0.30976 1.9358-2.2199 2.6791-2.2199 6.5146-0.15488 13.349-2.2199 19.57 1.1874 17.654-0.15488 35.206-0.72276 52.55-2.5297" fill="none" stroke="#000" stroke-miterlimit="10.433" stroke-width=".44528"/>
   <path d="m-241.43 97.901c-3.407-0.15488-6.9689 0.61951-10.376-0.46463" fill="none" stroke="#000" stroke-miterlimit="10.433" stroke-width=".44528"/>
   <path d="m-243.03 101-0.56783-0.20651-0.56783-0.2065-0.56784-0.15488-0.56783-0.15488-0.56783-0.10325-0.56784-0.10325-0.56783-0.10325-0.61945-0.05163-0.61946-0.05163h-0.56783l-1.2389-0.05163h-1.1873l-1.2389 0.05163h-1.2389l-1.1873-0.05163-0.61946-0.05163-0.61945-0.05163-0.56784-0.05163-0.61945-0.10325-0.56783-0.10325-0.61946-0.10325-0.56783-0.15488-0.56784-0.2065-0.56783-0.2065-0.56783-0.25813-0.56784-0.30976-0.51621-0.30976c-2.4262-1.4972-6.2462-0.46463-9.4983-0.46463" fill="none" stroke="#000" stroke-miterlimit="10.433" stroke-width=".44528"/>
   <path d="m-301.67 95.372c6.2462-0.15488 12.596-0.87764 18.997-0.61951" fill="none" stroke="#000" stroke-miterlimit="10.433" stroke-width=".44528"/>
   <path d="m-352.29 101.46 1.275-0.0516 1.275-0.0516 1.2647-0.15488 1.2596-0.10325 2.5088-0.25813 1.2492-0.15488 1.2492-0.10325 1.2441-0.15488 1.2441-0.0516 1.2441-0.0516h1.2441l1.2441 0.0516 0.61945 0.0516 0.62462 0.0516 0.62462 0.0516 0.61945 0.10326 0.62462 0.10325 0.62978 0.15488c3.7064 0.87764 7.1134 1.9102 10.985 1.6004 0.88789-0.15488 1.6364-0.87764 2.5243-0.87764 4.1503 0 8.1458-0.30976 12.472 0.15488 4.7492 0.413 9.3434 0.413 14.402-0.46464 6.3494-1.0325 12.596-0.413 18.997-0.15488 0.7227 0 1.2905 0.77439 2.0648 0.77439 4.1297 0.25813 8.311-0.46463 12.337 0.41301 4.7492 1.1874 9.6016 0.30976 14.506 0.77439h-0.56783" fill="none" stroke="#000" stroke-miterlimit="10.433" stroke-width=".44528"/>
   <path d="m-353.77 105.18 0.8311-0.0516 0.8311-0.0516 0.84143-0.0516h0.41813l0.42329-0.0516 0.42329-0.0516 0.42846-0.0516 0.42846-0.0516 0.43361-0.0516 0.43362-0.0516 0.43362-0.10325 0.44394-0.0516 0.44395-0.10325c3.1231-0.92926 6.3907-0.30975 9.6583-0.30975" fill="none" stroke="#000" stroke-miterlimit="10.433" stroke-width=".44528"/>
   <path d="m-339.83 99.966 0.29424-0.10325 0.29424-0.05163 0.29941-0.10325 0.30456-0.05163 0.2994-0.05163h0.30457l0.30973-0.05163h0.30456l0.30973-0.05163h0.93434l0.62462 0.05163 0.62978 0.05163 0.62461 0.10325 0.62462 0.10325 0.61946 0.10325 0.61945 0.10325 0.61429 0.15488 0.60397 0.10325 0.59364 0.15488 0.58849 0.15488c4.1555 0.87764 8.471 0 12.926-0.87764 10.531-1.8069 20.752-2.2715 31.128-0.46463 11.615 1.9102 23.797-1.652 35.206 2.2199" fill="none" stroke="#000" stroke-miterlimit="10.433" stroke-width=".44528"/>
   <path d="m-309.99 97.901-1.3886 0.25813-1.3938 0.25813-0.70205 0.15488-0.69689 0.10325-0.70204 0.10325-0.69689 0.05163-0.70721 0.10325-0.70205 0.05163h-2.132l-0.71237-0.05163-0.71753-0.05163-0.7227-0.10325c-0.16003 0 0-0.72276-0.16003-0.72276-0.2994-0.30976-0.88788-0.15488-1.4712-0.15488" fill="none" stroke="#000" stroke-miterlimit="10.433" stroke-width=".44528"/>
   <path d="m-316.22 97.901c2.8237-1.1874 5.4873-0.15488 8.3007-0.46463" fill="none" stroke="#000" stroke-miterlimit="10.433" stroke-width=".44528"/>
   <path d="m-326.16 81.691c6.6746 0.15488 13.21 0.15488 19.74 0.15488" fill="none" stroke="#000" stroke-miterlimit="10.433" stroke-width=".44528"/>
   <path d="m-287.27 86.027 0.2581-0.05163 0.20649-0.05163 0.2581-0.10325 0.20649-0.05163 0.2581-0.05163 0.20649-0.05163 0.41297-0.15488 0.41297-0.15488 0.41297-0.15488 0.41297-0.15488 0.36135-0.15488 0.36135-0.15488 0.36134-0.15488 0.36135-0.15488 0.41297-0.2065 0.36135-0.15488 0.36135-0.2065 0.36135-0.2065 0.41297-0.15488c2.6327-1.0325 6.6591 0 10.066 0" fill="none" stroke="#000" stroke-miterlimit="10.433" stroke-width=".44528"/>
   <path d="m-256.87 97.901c4.5943-2.6845 10.118-2.8394 15.435-2.5297" fill="none" stroke="#000" stroke-miterlimit="10.433" stroke-width=".44528"/>
   <path d="m-300.18 82.465c6.3494-0.77439 12.75-0.77439 19.1 0" fill="none" stroke="#000" stroke-miterlimit="10.433" stroke-width=".44528"/>
  </g>
 </g>
</svg>
